<svg width="2471" height="489" viewBox="0 0 2471 489" fill="none" xmlns="http://www.w3.org/2000/svg">
<g clip-path="url(#clip0_3005_5798)">
<path d="M160 170V226H104V170H160Z" fill="white"/>
<path fill-rule="evenodd" clip-rule="evenodd" d="M488 288.5L436 303L451 344L418.766 364L441 378L423 410L435 470H0V18H394.766L488 288.5ZM24 42V446H216.2L209 410L227 378L204.766 364L237 344L222 303L274 288.5L189.038 42H24ZM352 170C336.536 170 324 182.536 324 198C324 213.464 336.536 226 352 226C367.464 226 380 213.464 380 198C380 182.536 367.464 170 352 170Z" fill="white"/>
<path d="M1447.44 283.087L1527.38 18H1829.88V284.229C1829.88 316.104 1848.37 339.347 1878.75 339.347C1909.14 339.347 1927.63 316.104 1927.63 284.229V18H2083.51V293.526C2083.51 413.057 1999.62 488.096 1878.75 488.096C1757.88 488.096 1674 413.057 1674 293.526V72.7725L1534.65 470H1358.25L1201.66 18H1380.71L1447.44 283.087ZM2239.48 3.48828C2265.98 -0.766641 2292.6 -0.983247 2319.19 2.04492C2347.04 5.21287 2373.67 12.7287 2397.82 28.1025C2444.01 57.5091 2462.02 108.057 2466.85 160.251H2326.46C2324.75 126.692 2311.3 99.8534 2272.54 105.608C2262.07 107.161 2252.85 111.199 2245.99 119.973C2237.39 130.952 2236.79 151.668 2245.96 161.824C2250.04 166.343 2255.82 170.179 2261.53 171.98C2275.23 176.329 2289.26 179.714 2303.32 182.711C2337.06 189.932 2370.51 198.084 2401.92 213.163C2424.34 223.925 2442.63 239.982 2455.49 261.972C2463.83 276.227 2467.96 292.145 2469.73 308.605C2472.03 329.943 2471.23 351.202 2467.1 372.291C2462.03 398.194 2450.94 420.881 2432.85 439.625C2418.78 454.207 2401.88 464.425 2383.33 471.786C2350.91 484.644 2317.04 488.076 2282.71 487.998C2253.72 487.936 2225.01 485.032 2197.09 476.289C2132.95 456.213 2096 398.273 2096 330.858L2229.25 330.843C2230.98 353.06 2240.71 374.627 2265.66 380.801C2280.96 384.574 2296.28 384.777 2310.95 378.332C2323.84 372.664 2330.15 361.11 2329.27 346.684C2328.15 328.561 2321.24 319.631 2302.33 314.273C2289.46 310.64 2276.25 308.201 2263.14 305.562C2232.54 299.381 2202.14 292.44 2173.64 278.852C2151.26 268.168 2132.48 252.763 2119.32 230.913C2110.37 216.067 2105.88 199.529 2104.3 182.183C2101.85 155.379 2103.58 128.949 2111.78 103.232C2121.41 73.075 2138.93 49.0672 2164.6 31.4883C2187.37 15.897 2212.76 7.77433 2239.48 3.48828ZM938.55 164.021H826.825V470H671.725V164.021H560V18H938.55V164.021ZM1334.06 470H1157.02L1142.54 409.601H1025.39L1008.28 470H844.396L1001.7 18H1177.42L1334.06 470ZM1058.5 284.819H1114.04L1088.57 164.643L1058.5 284.819Z" fill="white"/>
</g>
<defs>
<clipPath id="clip0_3005_5798">
<rect width="2471" height="489" fill="white"/>
</clipPath>
</defs>
</svg>
